<mxfile host="app.diagrams.net" modified="2024-02-24T12:51:57.426Z" agent="Mozilla/5.0 (Windows NT 10.0; Win64; x64) AppleWebKit/537.36 (KHTML, like Gecko) Chrome/122.0.0.0 Safari/537.36" etag="fyq7uuljiABV395da_Ad" version="23.1.6" type="device">
  <diagram name="Page-1" id="0hDHZ-x1_YNpiTLKoClR">
    <mxGraphModel dx="1105" dy="607" grid="1" gridSize="10" guides="1" tooltips="1" connect="1" arrows="1" fold="1" page="1" pageScale="1" pageWidth="850" pageHeight="1100" math="0" shadow="0">
      <root>
        <mxCell id="0" />
        <mxCell id="1" parent="0" />
        <mxCell id="xE5RcUOEmon5hNNU3kOK-15" style="edgeStyle=orthogonalEdgeStyle;rounded=0;orthogonalLoop=1;jettySize=auto;html=1;entryX=0.75;entryY=0;entryDx=0;entryDy=0;" edge="1" parent="1" source="xE5RcUOEmon5hNNU3kOK-1" target="xE5RcUOEmon5hNNU3kOK-3">
          <mxGeometry relative="1" as="geometry" />
        </mxCell>
        <mxCell id="xE5RcUOEmon5hNNU3kOK-1" value="" style="shape=image;verticalLabelPosition=bottom;labelBackgroundColor=default;verticalAlign=top;aspect=fixed;imageAspect=0;image=https://upload.wikimedia.org/wikipedia/commons/thumb/3/36/MetaMask_Fox.svg/1200px-MetaMask_Fox.svg.png;" vertex="1" parent="1">
          <mxGeometry x="170" y="130" width="130" height="130" as="geometry" />
        </mxCell>
        <mxCell id="xE5RcUOEmon5hNNU3kOK-12" style="edgeStyle=orthogonalEdgeStyle;rounded=0;orthogonalLoop=1;jettySize=auto;html=1;" edge="1" parent="1" source="xE5RcUOEmon5hNNU3kOK-3" target="xE5RcUOEmon5hNNU3kOK-1">
          <mxGeometry relative="1" as="geometry">
            <Array as="points">
              <mxPoint x="90" y="300" />
              <mxPoint x="220" y="300" />
            </Array>
          </mxGeometry>
        </mxCell>
        <mxCell id="xE5RcUOEmon5hNNU3kOK-3" value="Frontend Client" style="rounded=0;whiteSpace=wrap;html=1;" vertex="1" parent="1">
          <mxGeometry x="60" y="390" width="120" height="60" as="geometry" />
        </mxCell>
        <mxCell id="xE5RcUOEmon5hNNU3kOK-7" style="edgeStyle=orthogonalEdgeStyle;rounded=0;orthogonalLoop=1;jettySize=auto;html=1;" edge="1" parent="1" source="xE5RcUOEmon5hNNU3kOK-5" target="xE5RcUOEmon5hNNU3kOK-6">
          <mxGeometry relative="1" as="geometry">
            <Array as="points">
              <mxPoint x="620" y="220" />
              <mxPoint x="620" y="220" />
            </Array>
          </mxGeometry>
        </mxCell>
        <mxCell id="xE5RcUOEmon5hNNU3kOK-5" value="Oracle" style="ellipse;shape=cloud;whiteSpace=wrap;html=1;" vertex="1" parent="1">
          <mxGeometry x="540" y="120" width="120" height="80" as="geometry" />
        </mxCell>
        <mxCell id="xE5RcUOEmon5hNNU3kOK-20" style="edgeStyle=orthogonalEdgeStyle;rounded=0;orthogonalLoop=1;jettySize=auto;html=1;entryX=1;entryY=0.75;entryDx=0;entryDy=0;" edge="1" parent="1" source="xE5RcUOEmon5hNNU3kOK-6" target="xE5RcUOEmon5hNNU3kOK-1">
          <mxGeometry relative="1" as="geometry">
            <Array as="points">
              <mxPoint x="390" y="390" />
              <mxPoint x="390" y="228" />
            </Array>
          </mxGeometry>
        </mxCell>
        <mxCell id="xE5RcUOEmon5hNNU3kOK-6" value="Blockchain" style="shape=cube;whiteSpace=wrap;html=1;boundedLbl=1;backgroundOutline=1;darkOpacity=0.05;darkOpacity2=0.1;" vertex="1" parent="1">
          <mxGeometry x="540" y="340" width="120" height="80" as="geometry" />
        </mxCell>
        <mxCell id="xE5RcUOEmon5hNNU3kOK-28" style="edgeStyle=orthogonalEdgeStyle;rounded=0;orthogonalLoop=1;jettySize=auto;html=1;entryX=0.75;entryY=1;entryDx=0;entryDy=0;" edge="1" parent="1" source="xE5RcUOEmon5hNNU3kOK-11" target="xE5RcUOEmon5hNNU3kOK-3">
          <mxGeometry relative="1" as="geometry" />
        </mxCell>
        <mxCell id="xE5RcUOEmon5hNNU3kOK-11" value="Backend Server" style="label;whiteSpace=wrap;html=1;align=center;verticalAlign=bottom;spacingLeft=0;spacingBottom=4;imageAlign=center;imageVerticalAlign=top;image=img/clipart/Gear_128x128.png" vertex="1" parent="1">
          <mxGeometry x="240" y="430" width="120" height="80" as="geometry" />
        </mxCell>
        <mxCell id="xE5RcUOEmon5hNNU3kOK-14" value="Request" style="text;html=1;align=center;verticalAlign=middle;whiteSpace=wrap;rounded=0;" vertex="1" parent="1">
          <mxGeometry x="120" y="270" width="60" height="30" as="geometry" />
        </mxCell>
        <mxCell id="xE5RcUOEmon5hNNU3kOK-16" value="Response" style="text;html=1;align=center;verticalAlign=middle;whiteSpace=wrap;rounded=0;" vertex="1" parent="1">
          <mxGeometry x="170" y="320" width="60" height="30" as="geometry" />
        </mxCell>
        <mxCell id="xE5RcUOEmon5hNNU3kOK-17" value="Metamask Wallet" style="text;html=1;align=center;verticalAlign=middle;whiteSpace=wrap;rounded=0;" vertex="1" parent="1">
          <mxGeometry x="152.5" y="110" width="165" height="30" as="geometry" />
        </mxCell>
        <mxCell id="xE5RcUOEmon5hNNU3kOK-19" style="edgeStyle=orthogonalEdgeStyle;rounded=0;orthogonalLoop=1;jettySize=auto;html=1;entryX=0;entryY=0;entryDx=0;entryDy=30;entryPerimeter=0;" edge="1" parent="1" source="xE5RcUOEmon5hNNU3kOK-1" target="xE5RcUOEmon5hNNU3kOK-6">
          <mxGeometry relative="1" as="geometry">
            <Array as="points">
              <mxPoint x="420" y="195" />
              <mxPoint x="420" y="370" />
            </Array>
          </mxGeometry>
        </mxCell>
        <mxCell id="xE5RcUOEmon5hNNU3kOK-21" value="JSON-RPC Request" style="text;html=1;align=center;verticalAlign=middle;whiteSpace=wrap;rounded=0;" vertex="1" parent="1">
          <mxGeometry x="420" y="240" width="60" height="30" as="geometry" />
        </mxCell>
        <mxCell id="xE5RcUOEmon5hNNU3kOK-22" value="JSON-RPC Response" style="text;html=1;align=center;verticalAlign=middle;whiteSpace=wrap;rounded=0;" vertex="1" parent="1">
          <mxGeometry x="330" y="310" width="60" height="30" as="geometry" />
        </mxCell>
        <mxCell id="xE5RcUOEmon5hNNU3kOK-23" value="Smart Contract" style="shape=note;whiteSpace=wrap;html=1;backgroundOutline=1;darkOpacity=0.05;size=17;" vertex="1" parent="1">
          <mxGeometry x="640" y="390" width="50" height="60" as="geometry" />
        </mxCell>
        <mxCell id="xE5RcUOEmon5hNNU3kOK-24" style="edgeStyle=orthogonalEdgeStyle;rounded=0;orthogonalLoop=1;jettySize=auto;html=1;" edge="1" parent="1" source="xE5RcUOEmon5hNNU3kOK-11" target="xE5RcUOEmon5hNNU3kOK-6">
          <mxGeometry relative="1" as="geometry">
            <Array as="points">
              <mxPoint x="570" y="470" />
            </Array>
          </mxGeometry>
        </mxCell>
        <mxCell id="xE5RcUOEmon5hNNU3kOK-25" value="Listen to Event" style="text;html=1;align=center;verticalAlign=middle;whiteSpace=wrap;rounded=0;" vertex="1" parent="1">
          <mxGeometry x="425" y="440" width="60" height="30" as="geometry" />
        </mxCell>
        <mxCell id="xE5RcUOEmon5hNNU3kOK-26" style="edgeStyle=orthogonalEdgeStyle;rounded=0;orthogonalLoop=1;jettySize=auto;html=1;exitX=0;exitY=0;exitDx=70;exitDy=80;exitPerimeter=0;" edge="1" parent="1" source="xE5RcUOEmon5hNNU3kOK-6" target="xE5RcUOEmon5hNNU3kOK-11">
          <mxGeometry relative="1" as="geometry">
            <Array as="points">
              <mxPoint x="610" y="500" />
            </Array>
          </mxGeometry>
        </mxCell>
        <mxCell id="xE5RcUOEmon5hNNU3kOK-27" value="Response" style="text;html=1;align=center;verticalAlign=middle;whiteSpace=wrap;rounded=0;" vertex="1" parent="1">
          <mxGeometry x="430" y="480" width="60" height="30" as="geometry" />
        </mxCell>
        <mxCell id="xE5RcUOEmon5hNNU3kOK-29" style="edgeStyle=orthogonalEdgeStyle;rounded=0;orthogonalLoop=1;jettySize=auto;html=1;entryX=-0.024;entryY=0.836;entryDx=0;entryDy=0;entryPerimeter=0;exitX=0.5;exitY=1;exitDx=0;exitDy=0;" edge="1" parent="1" source="xE5RcUOEmon5hNNU3kOK-3" target="xE5RcUOEmon5hNNU3kOK-11">
          <mxGeometry relative="1" as="geometry" />
        </mxCell>
        <mxCell id="xE5RcUOEmon5hNNU3kOK-30" value="Request" style="text;html=1;align=center;verticalAlign=middle;whiteSpace=wrap;rounded=0;" vertex="1" parent="1">
          <mxGeometry x="180" y="440" width="60" height="30" as="geometry" />
        </mxCell>
        <mxCell id="xE5RcUOEmon5hNNU3kOK-31" value="Response" style="text;html=1;align=center;verticalAlign=middle;whiteSpace=wrap;rounded=0;" vertex="1" parent="1">
          <mxGeometry x="160" y="490" width="60" height="30" as="geometry" />
        </mxCell>
        <mxCell id="xE5RcUOEmon5hNNU3kOK-32" value="Provide Real World/Off-Chain&lt;br&gt;&amp;nbsp;Data" style="text;html=1;align=center;verticalAlign=middle;whiteSpace=wrap;rounded=0;" vertex="1" parent="1">
          <mxGeometry x="610" y="240" width="120" height="40" as="geometry" />
        </mxCell>
        <mxCell id="xE5RcUOEmon5hNNU3kOK-33" style="edgeStyle=orthogonalEdgeStyle;rounded=0;orthogonalLoop=1;jettySize=auto;html=1;entryX=0.325;entryY=0.866;entryDx=0;entryDy=0;entryPerimeter=0;" edge="1" parent="1" source="xE5RcUOEmon5hNNU3kOK-6" target="xE5RcUOEmon5hNNU3kOK-5">
          <mxGeometry relative="1" as="geometry">
            <Array as="points">
              <mxPoint x="579" y="300" />
              <mxPoint x="579" y="300" />
            </Array>
          </mxGeometry>
        </mxCell>
        <mxCell id="xE5RcUOEmon5hNNU3kOK-35" value="Request Real World/Off-Chain&lt;br&gt;&amp;nbsp;Data" style="text;html=1;align=center;verticalAlign=middle;whiteSpace=wrap;rounded=0;" vertex="1" parent="1">
          <mxGeometry x="480" y="240" width="110" height="40" as="geometry" />
        </mxCell>
      </root>
    </mxGraphModel>
  </diagram>
</mxfile>
